# xmcd
#
# Track frame offsets:
#	150
#	20273
#	31767
#	44081
#	52756
#	69039
#	89043
#	102688
#	123129
#	141149
#	158898
#	182063
#	197211
#	211064
#	242929
#	261542
#	277504
#	291621
#	307411
#
# Disc length: 4364 seconds
#
# Revision: 1
# Processed by: cddbd v1.5.1PL2 Copyright (c) Steve Scherf et al.
# Submitted via: audiograbber 1.83.01
#
DISCID=1e110a13
DTITLE=J.J. Cale - Fineline Music Café Minneapolis 1988
DYEAR=1988
DGENRE=Pop
TTITLE0=After midnight
TTITLE1=The old man and me
TTITLE2=Deep dark dungeon
TTITLE3=Drifters wife
TTITLE4=Cocaine
TTITLE5=Call me the breeze
TTITLE6=Money talks
TTITLE7=w/Christine Lakeland
TTITLE8=w/Christine Lakeland
TTITLE9=Temptation
TTITLE10=Crazy mama
TTITLE11=Thirteen days
TTITLE12=Magnolia
TTITLE13=Hard times
TTITLE14=Tijuana
TTITLE15=Hard love
TTITLE16=Wish I had me a dollar
TTITLE17=Santa Cruz
TTITLE18=Midnight in Memphis
EXTD=
EXTT0=
EXTT1=
EXTT2=
EXTT3=
EXTT4=
EXTT5=
EXTT6=
EXTT7=
EXTT8=
EXTT9=
EXTT10=
EXTT11=
EXTT12=
EXTT13=
EXTT14=
EXTT15=
EXTT16=
EXTT17=
EXTT18=
PLAYORDER=
